<svg xmlns="http://www.w3.org/2000/svg" id="Layer_1" data-name="Layer 1" viewBox="418.47 189.26 528.99 389.48">
  <defs>
    <style>
      .cls-1 {
        fill: #00dab6;
      }

      .cls-1, .cls-2, .cls-3 {
        stroke-width: 0px;
      }

      .cls-2 {
        fill: #9766ff;
      }

      .cls-3 {
        fill: #bcfaee;
      }
    </style>
  </defs>
  <g>
    <path class="cls-1" d="M667.16,236.27c0-.5-.06-1.07-.13-1.57-.19-1.57-.38-3.15-.76-4.72-.31-1.64-.76-3.27-1.26-4.85-.57-1.76-1.13-3.46-1.89-5.16-.57-1.32-1.26-2.71-1.95-3.96-.69-1.38-1.51-2.77-2.39-4.03-.25-.31-.5-.63-.76-.94-.63-1.13-1.38-2.08-2.26-3.15,0-.06-.13-.06-.19-.13-.94-1.32-2.01-2.52-3.21-3.52-1.13-1.2-2.33-2.27-3.59-3.33-1.2-1.01-2.52-1.95-3.84-2.83l-.13-.13c-1.32-.94-2.77-1.82-4.22-2.52-1.13-.69-2.14-1.2-3.33-1.7-1.95-.88-3.9-1.64-5.85-2.14-1.57-.57-3.15-1.01-4.85-1.32-1.01-.25-2.08-.38-3.21-.44-2.33-.44-4.59-.57-7.05-.57h-146.75c-2.45,0-4.72.13-7.05.57-1.13.06-2.2.19-3.21.44-1.7.31-3.27.76-4.84,1.32-.13,0-.19,0-.31.06-1.45.38-2.89.94-4.22,1.51-.19.06-.44.19-.57.25-1.45.57-2.83,1.2-4.09,2.01-1.45.69-2.9,1.57-4.22,2.52l-.13.13c-1.32.88-2.64,1.82-3.84,2.83-1.26,1.07-2.45,2.14-3.59,3.33-1.2,1.01-2.27,2.2-3.21,3.52l-.13.13c-.88,1.07-1.7,2.01-2.33,3.15-.31.31-.57.63-.76.94-.88,1.26-1.7,2.64-2.39,4.03-.69,1.26-1.38,2.64-1.95,3.96-.76,1.7-1.32,3.4-1.89,5.16-.5,1.57-.94,3.21-1.26,4.85-.38,1.57-.57,3.15-.76,4.72-.06.5-.13,1.07-.13,1.57-.13,1.32-.19,2.64-.19,3.96v146.81c0,1.26,0,2.58.19,3.84,0,.57.06,1.13.13,1.7.19,1.57.38,3.08.76,4.72.31,1.57.75,3.27,1.26,4.91,1.57,5.29,4.15,10.19,7.36,14.6.57.88,1.2,1.76,1.95,2.58,0,.06.06.06.13.19.94,1.26,2.08,2.45,3.21,3.52,1.13,1.2,2.33,2.2,3.59,3.27,1.2,1.01,2.52,2.01,3.84,2.89l.13.06c1.32.94,2.77,1.82,4.22,2.58,1.26.76,2.64,1.45,4.09,1.95.13.13.38.19.57.25,1.32.57,2.77,1.13,4.22,1.51.13.13.19.13.31.13,1.57.57,3.15.94,4.84,1.26,1.01.25,2.08.38,3.21.5,2.33.38,4.59.57,7.05.57h60.35v-172.1l-52.29,52.29v-37l46.88-46.75,18.5-18.5,13.03,13.03v209.04h60.28c2.45,0,4.72-.19,7.05-.57,1.13-.13,2.2-.25,3.21-.5,1.7-.31,3.27-.69,4.85-1.26,1.95-.57,3.9-1.32,5.85-2.2,1.2-.44,2.2-1.01,3.33-1.64,1.45-.76,2.9-1.64,4.22-2.58,0,0,.13,0,.13-.06,1.32-.88,2.64-1.89,3.84-2.89,1.26-1.07,2.45-2.08,3.59-3.27,1.13-1.07,2.27-2.27,3.21-3.52.06-.13.19-.13.19-.19.69-.82,1.32-1.7,1.89-2.58,3.21-4.4,5.79-9.31,7.36-14.6.5-1.64.94-3.34,1.26-4.91.38-1.51.57-3.15.76-4.72.06-.57.13-1.13.13-1.7.19-1.26.19-2.58.19-3.84v-146.81c0-1.32-.06-2.64-.19-3.96ZM503.81,328.96l14.28-14.22v36.88l-40.46,40.46v-36.94l26.18-26.18ZM608.27,392.08l-9.94-9.82-8.18-8.24-5.03-4.97-16.23-16.36v-36.81l13.28,13.21,26.11,26.05v36.94ZM608.27,318.26l-13.22-13.21v.13l-9.94-9.82-16.23-16.36v-36.81l13.28,13.21v-.25l16.17,16.24,9.94,9.94v36.94Z"/>
    <polygon class="cls-3" points="518.09 314.74 518.09 351.61 477.63 392.08 477.63 355.14 503.81 328.96 518.09 314.74"/>
    <polygon class="cls-3" points="608.27 281.33 608.27 318.26 595.05 305.05 595.05 305.17 585.11 295.36 568.87 279 568.87 242.19 582.15 255.4 582.15 255.15 598.32 271.38 608.27 281.33"/>
    <polygon class="cls-3" points="608.27 355.14 608.27 392.08 598.32 382.26 590.14 374.02 585.11 369.04 568.87 352.68 568.87 315.87 582.15 329.09 608.27 355.14"/>
    <g>
      <path class="cls-2" d="M790.81,310.46c.25-2.77-2.08-3.33-2.52-3.46-.69-.13-2.77-.38-3.59,2.01-5.35,15.54-8.12,33.22-8.12,51.03,0,29.51,7.42,57.14,20.95,77.78l.19.25h36.18c-18.81-18-33.23-45.31-39.9-75.89-3.78-17.62-4.91-34.99-3.21-51.73Z"/>
      <path class="cls-2" d="M896.28,189.26h-146.81c-26.3,0-47.95,19.95-50.72,45.43-.25,1.89-.31,3.71-.31,5.54v146.81c0,1.82.06,3.71.31,5.54,2.77,25.55,24.42,45.5,50.72,45.5h42.73c-5.79-2.58-11.2-5.92-16.05-9.82-17.3-13.66-28.44-34.92-28.44-58.77v-20.51c-.25-3.71-.38-7.49-.38-11.26,0-3.96.13-7.93.38-11.77v-28.25c0-41.47,33.67-75.13,75.13-75.13,20.77,0,39.52,8.43,53.11,22.02,13.53,13.59,21.96,32.34,21.96,53.11v27.5c.38,4.09.5,8.24.5,12.52s-.13,8.18-.5,12.14v19.63c0,23.85-11.08,45.12-28.44,58.9-4.84,3.84-10.19,7.11-15.98,9.69h42.79c28.07,0,50.97-22.91,50.97-51.03v-146.81c0-28.07-22.9-50.97-50.97-50.97Z"/>
    </g>
  </g>
  <g>
    <path class="cls-2" d="M501.57,526.94c11.72,3.69,17.83,11.36,17.83,22.73,0,18.59-11.89,27.3-37.53,27.3h-52.47c-6.79,0-10.87-3.54-10.87-9.44v-79.98c0-5.9,4.08-9.44,10.87-9.44h49.24c25.47,0,37.53,8.56,37.53,27,0,10.18-4.92,17.56-14.6,21.55v.3ZM477.8,519.41c11.89,0,18-3.98,18-12.54s-6.11-12.69-18-12.69h-39.05v25.23h39.05ZM480.69,560.88c11.89,0,18-4.28,18-12.99s-6.11-12.69-18-12.69h-41.94v25.68h41.94Z"/>
    <path class="cls-2" d="M587.08,476.33c-33.45,0-52.47,16.68-52.47,46.78v45.45c0,5.76,3.73,9.3,10.01,9.3s9.85-3.54,9.85-9.3v-46.19c0-19.62,11.38-29.95,32.43-29.95s32.26,10.33,32.26,29.95v46.04c0,5.91,3.91,9.44,10.02,9.44s10.19-3.54,10.19-9.44v-45.3c0-30.1-19.02-46.78-52.3-46.78Z"/>
    <circle class="cls-2" cx="587" cy="535.2" r="12.56"/>
    <path class="cls-1" d="M927.84,484.06c-8.43-5.09-19.43-7.74-32.68-7.74s-24.15,2.6-32.58,7.6c-12.92,7.66-19.89,20.96-19.89,39.18v8.86c0,18.11,6.89,31.36,19.62,39.04,8.43,5.1,19.43,7.74,32.68,7.74s24.15-2.6,32.58-7.6c12.92-7.65,19.89-20.96,19.89-39.18v-8.86c0-18.11-6.89-31.36-19.62-39.04ZM895.16,562.65c-20.72,0-32.26-10.33-32.26-29.95v-13.01c0-3.27.46-6.53,1.52-9.62,4.02-11.62,14.46-17.66,30.56-17.66,20.72,0,32.26,10.33,32.26,29.95v13.01c0,3.27-.46,6.53-1.52,9.62-4.02,11.62-14.46,17.66-30.56,17.66Z"/>
    <path class="cls-2" d="M707.28,518.23c35.83.44,48.73,8.71,48.73,28.63s-18.17,31.87-49.58,31.87c-22.07,0-38.71-5.02-48.05-14.61-1.7-1.77-2.55-3.84-2.55-6.35,0-4.87,3.74-8.26,9.51-8.26,2.55,0,4.75.74,6.45,2.07,8.66,7.38,20.72,11.22,36.17,11.22,16.98,0,27.34-5.76,27.34-15.35,0-8.12-7.3-11.36-30.39-11.81-34.81-.59-47.37-8.56-47.37-27.45s19.02-31.87,48.9-31.87c17.32,0,31.41,4.13,41.43,11.95,1.87,1.48,3.4,3.54,3.4,6.94,0,4.72-3.74,7.97-8.49,7.97-3.4,0-5.6-.89-7.47-2.07-8.66-6.05-18.34-8.85-30.39-8.85-16.13,0-26.83,6.2-26.83,15.35,0,7.53,6.79,10.33,29.21,10.63Z"/>
    <path class="cls-1" d="M811.12,478.12c6.28,0,10.36,3.54,10.36,9v81.87c0,5.61-3.74,8.85-9.68,8.85s-9.51-3.25-9.51-8.85v-75.68h-27.68c-5.6,0-9.34-2.51-9.34-7.53,0-4.57,3.74-7.67,9.34-7.67h36.51Z"/>
  </g>
</svg>
